<svg xmlns="http://www.w3.org/2000/svg" width="200" height="200" viewBox="0 0 200 200"><polygon points="152.30831811213284,100 155.5770909380095,120.22840680854135 142.56328890771516,135.7148400241558 126.66809314046986,146.19049226027286 110.75820960568137,161.01283854833736 93.15551125152855,138.8170246037841 82.37997572211316,130.51877727989714 55.18749978399488,137.6021524033817 56.27287822966789,115.91537075453455 59.931766428402625,100 72.57285843875077,90.01733686069983 53.981645991980486,61.38601612448536 78.29553195482428,62.406758594500545 89.59504027910447,40.990541101030615 110.00787278467837,43.242533023206605 114.98523180343908,74.04481715324648 139.0312136521125,67.24892302011077 132.5188031750286,88.16412359032832" fill="white" opacity="0.9"/><circle cx="57.265885789097965" cy="139.87389774887356" r="5.551621886731937" fill="white" opacity="0.7648007680254523"/><circle cx="145.0247877194052" cy="56.33310563153342" r="17.69052682298934" fill="white" opacity="0.8870846083911601"/><circle cx="99.31478468444308" cy="48.878417817771094" r="19.788352017385478" fill="white" opacity="0.8478333932434907"/><circle cx="104.64060381862811" cy="45.88148799796495" r="13.832778633204725" fill="white" opacity="0.7190144115120347"/><circle cx="67.63632892442556" cy="112.31364862837123" r="19.278900380486448" fill="white" opacity="0.8697082375641912"/><circle cx="120.89705761324235" cy="102.79124008033152" r="18.23999052286581" fill="white" opacity="0.592278086567967"/><circle cx="78.44834220843474" cy="130.92499090311162" r="14.875589603361732" fill="white" opacity="0.7679160340601812"/><circle cx="54.78489051183617" cy="55.291651291684055" r="19.04753753095065" fill="white" opacity="0.5862617544131353"/><circle cx="81.03396211072669" cy="52.69013066294666" r="8.952281026176934" fill="white" opacity="0.5540178660856327"/><circle cx="137.5482378651193" cy="126.55257410020327" r="5.902211426946451" fill="white" opacity="0.820525439598714"/><circle cx="124.6217785064587" cy="74.56083743417774" r="7.049578670971641" fill="white" opacity="0.7548794097347127"/><circle cx="71.82159571737476" cy="54.01564773621345" r="6.913992822555883" fill="white" opacity="0.5289203812833876"/><circle cx="128.07442443398935" cy="163.2511409604203" r="14.62991961170701" fill="white" opacity="0.6291526361455908"/><circle cx="49.30500468601949" cy="95.9103746433599" r="9.252171326770622" fill="white" opacity="0.6665326446294785"/><circle cx="116.39455741531555" cy="16.216071353323983" r="5.480943047674373" fill="white" opacity="0.6402273652842269"/><circle cx="47.418868773541696" cy="33.47645074222255" r="4.073315843488672" fill="white" opacity="0.4233320048839687"/><circle cx="30.509329789500427" cy="107.97105512664231" r="3.254154738417128" fill="white" opacity="0.4948198504454922"/><circle cx="134.97327276431284" cy="167.9831824461457" r="3.896207495519775" fill="white" opacity="0.6806051128660329"/><circle cx="48.87682822769411" cy="143.63672900631485" r="4.7545418399968185" fill="white" opacity="0.6505326292710378"/><circle cx="22.42799199978542" cy="137.56028431780723" r="2.662218351091724" fill="white" opacity="0.5293922388227656"/><circle cx="84.49006354279258" cy="14.07480885502811" r="2.042385122666019" fill="white" opacity="0.6426841148268068"/><circle cx="60.04949407710549" cy="132.35959722542881" r="2.9226765972853173" fill="white" opacity="0.49475644359772564"/><circle cx="79.2035057315216" cy="44.20386189943607" r="2.767917489822139" fill="white" opacity="0.7004234735170031"/><circle cx="151.82010623213174" cy="103.58848684452751" r="5.4840617761947215" fill="white" opacity="0.7546013181825402"/><circle cx="177.6924727631695" cy="79.31854783097178" r="2.5624473215139005" fill="white" opacity="0.40781290197046477"/><circle cx="24.817142127063462" cy="143.34220108825204" r="3.1458664917299757" fill="white" opacity="0.6939420330270423"/></svg>