<svg xmlns="http://www.w3.org/2000/svg" width="200" height="200" viewBox="0 0 200 200"><polygon points="162.84528214893362,100 169.72493164698727,120.47308714987221 140.13515620089996,125.79329870287395 143.1767221584828,149.82859362584992 121.16198504180696,146.33828358811365 106.00241374959207,141.74770462780648 94.90420333895511,135.44204427146042 86.18291733213181,130.25519079420997 74.80259678845684,129.07935346379685 40.77976601527862,138.05853344075825 57.57887371393388,112.45596653787315 57.6836781547463,100.00000000000003 35.66413133507791,81.10928451377559 46.797640721839024,65.80891979863645 68.35781348173433,63.482970113741224 69.21498609050067,32.59022242080779 93.59814038208017,55.474088333920335 106.72021907679674,53.25984966109212 128.65136555833905,37.262260614675114 121.61681871206959,75.05286132806252 135.96167322113564,76.88883594709677 152.07449955454405,84.70954732427869" fill="white" opacity="0.9"/><circle cx="58.8868189822391" cy="133.6054540535896" r="9.211670882996259" fill="white" opacity="0.6573099110566545"/><circle cx="164.87160520480313" cy="121.6393588096173" r="10.41193081642632" fill="white" opacity="0.6048518662344577"/><circle cx="83.60510905826982" cy="161.32546862817267" r="19.92530790848832" fill="white" opacity="0.7307750463165575"/><circle cx="135.11295096874295" cy="131.8063199515049" r="17.455218375350796" fill="white" opacity="0.8627912227006164"/><circle cx="120.18250482358776" cy="163.06265149663375" r="15.748303297186794" fill="white" opacity="0.7691635107592447"/><circle cx="71.05215009388888" cy="87.49147787104013" r="5.615557250821439" fill="white" opacity="0.5354920665384271"/><circle cx="104.86101459648974" cy="153.26816688049485" r="19.73148563700306" fill="white" opacity="0.5728630071342196"/><circle cx="89.71667768561582" cy="70.98570886990058" r="14.416166076625814" fill="white" opacity="0.7859535201248946"/><circle cx="101.83767603976045" cy="73.31095859331002" r="7.720191883449843" fill="white" opacity="0.6172377964176121"/><circle cx="47.14676024386882" cy="71.46193848353684" r="17.651456950661668" fill="white" opacity="0.5364217610738706"/><circle cx="49.71125083024968" cy="87.33139099356481" r="7.027021288668038" fill="white" opacity="0.7967678294371581"/><circle cx="97.10489107394253" cy="76.56308850743484" r="9.154589896152174" fill="white" opacity="0.6036645970718382"/><circle cx="93.1755557051829" cy="64.50603650922005" r="12.471498219565547" fill="white" opacity="0.8006044745881808"/><circle cx="125.74662639381984" cy="68.32817530559173" r="16.118049888796122" fill="white" opacity="0.5605937485976028"/><circle cx="150.03155471047845" cy="76.63332951654816" r="18.33072264544171" fill="white" opacity="0.7427669106720713"/><circle cx="82.59476980893922" cy="154.13054268500787" r="7.895019194820634" fill="white" opacity="0.5464520114299376"/><circle cx="157.2436427671932" cy="118.66864011180992" r="17.89084053310944" fill="white" opacity="0.66436422696097"/><circle cx="55.84237593479666" cy="111.58473446824775" r="14.401436683474458" fill="white" opacity="0.509753480280051"/><circle cx="42.61080208426724" cy="159.7859023016431" r="2.6636496368737426" fill="white" opacity="0.773826649117109"/><circle cx="35.76761342633918" cy="152.69826263008088" r="2.9381339195824694" fill="white" opacity="0.4350796582701151"/><circle cx="126.57613242868422" cy="172.97487902427372" r="2.8204695147942402" fill="white" opacity="0.7353025777672884"/><circle cx="158.88202093367462" cy="110.81497613468812" r="3.708032262074994" fill="white" opacity="0.6764495598705254"/><circle cx="131.09074536819162" cy="157.087959130373" r="3.6317283907992532" fill="white" opacity="0.4412614328757627"/><circle cx="97.19705669547098" cy="47.6698206401639" r="5.838779529149178" fill="white" opacity="0.6852888993249509"/><circle cx="31.655318021189103" cy="85.43119276341747" r="3.7108506906370167" fill="white" opacity="0.6289522931067041"/><circle cx="55.942508685970246" cy="41.641013932957144" r="5.69968382272782" fill="white" opacity="0.5510152150505747"/><circle cx="177.8650139891041" cy="78.660188511554" r="4.168127830373123" fill="white" opacity="0.5864101894752821"/><circle cx="43.37289818066466" cy="123.10442277140427" r="3.318245916525484" fill="white" opacity="0.4823646520409966"/><circle cx="54.37701429570228" cy="143.70943106849884" r="3.347776927810628" fill="white" opacity="0.5203138031603886"/><circle cx="90.22915766982976" cy="25.105212335896965" r="4.2846626044483855" fill="white" opacity="0.6114740869874368"/><circle cx="138.56822849805994" cy="162.9718527989218" r="2.4528154287327197" fill="white" opacity="0.5093258289540246"/><circle cx="32.28693025969358" cy="114.69337948851235" r="4.894481643452309" fill="white" opacity="0.6793185032758629"/><circle cx="73.6057165617103" cy="53.89979343714962" r="2.9556697999796597" fill="white" opacity="0.41549967089085843"/><circle cx="94.07427346369849" cy="149.97650670096482" r="5.768653057195479" fill="white" opacity="0.40827375973603924"/></svg>