<svg xmlns="http://www.w3.org/2000/svg" width="200" height="200" viewBox="0 0 200 200"><polygon points="143.83648580219597,100 135.10069217480182,114.53918274748608 123.84119477262878,123.84119477262878 110.59141792550665,125.56994480051966 100,141.30261918983888 90.77831068943645,122.26312740155353 76.55896565902395,123.44103434097605 56.83350567303507,117.88014739033015 45.1722140351776,100 69.6615967110187,87.43342189695943 63.22787599347424,63.22787599347426 87.37087578940606,69.51059704988974 100,69.1314096297574 117.82996523723091,56.954656107636346 128.40311730790964,71.59688269209035 144.28532480359596,81.6564178522529" fill="white" opacity="0.9"/><circle cx="133.51620697396837" cy="119.99117740715147" r="11.740636890108362" fill="white" opacity="0.6563753559881661"/><circle cx="53.60811466721039" cy="56.09780078752661" r="19.30795382722863" fill="white" opacity="0.5204969568992965"/><circle cx="89.11610635131956" cy="43.64809897547062" r="17.097447601026943" fill="white" opacity="0.61663061248546"/><circle cx="155.89376505565497" cy="116.15181846236395" r="19.022817084987764" fill="white" opacity="0.5468568755459273"/><circle cx="70.91606086644089" cy="69.5515001992159" r="15.067568585363915" fill="white" opacity="0.5802814488648437"/><circle cx="86.00123391479154" cy="115.72952248280133" r="10.614172116420377" fill="white" opacity="0.7259660369605626"/><circle cx="93.17667807691909" cy="136.7147637311198" r="19.81517786945915" fill="white" opacity="0.5942065390321659"/><circle cx="60.60214452541723" cy="132.7074435970641" r="6.695383535552537" fill="white" opacity="0.7783161331200972"/><circle cx="116.05587436866561" cy="47.954386411538955" r="14.854599259888346" fill="white" opacity="0.8043765427311882"/><circle cx="106.90101206214045" cy="123.92262232214772" r="15.855897187102528" fill="white" opacity="0.7315186557971174"/><circle cx="45.45829209709323" cy="67.24764778095994" r="19.728768348359154" fill="white" opacity="0.7157106569948155"/><circle cx="147.53398049906806" cy="123.72335541039062" r="9.566508706120658" fill="white" opacity="0.7921756162773819"/><circle cx="176.35880203382845" cy="117.96453411817367" r="2.2117043010803172" fill="white" opacity="0.7123017250472913"/><circle cx="145.4169683800185" cy="34.097059494071786" r="3.742072495049797" fill="white" opacity="0.657418521339423"/><circle cx="179.96219081639435" cy="92.8923288665212" r="4.604728560050717" fill="white" opacity="0.5927293131040643"/><circle cx="32.070544498745136" cy="57.57490841782799" r="2.1297690115170553" fill="white" opacity="0.46975210562122816"/><circle cx="150.61175929255137" cy="84.22999920812127" r="3.7626939825422596" fill="white" opacity="0.5550191467365949"/><circle cx="137.1420149500157" cy="66.27412914622128" r="2.6846516911900835" fill="white" opacity="0.5712930926441914"/><circle cx="70.25016893541586" cy="54.164498637481046" r="3.0311285266652703" fill="white" opacity="0.6886311067602946"/><circle cx="161.45979834621494" cy="74.09005095393108" r="4.534647942695301" fill="white" opacity="0.5566586645931239"/><circle cx="95.05365769150215" cy="158.23704669587417" r="4.0985807104589185" fill="white" opacity="0.6772871412740642"/><circle cx="157.23394238946224" cy="122.7218712157088" r="4.56478497578064" fill="white" opacity="0.4044014970335411"/></svg>