<svg xmlns="http://www.w3.org/2000/svg" width="200" height="200" viewBox="0 0 200 200"><polygon points="143.09415408215136,100 138.88482536257405,118.72594495137892 113.2357158732222,116.59706274559332 108.88531039195124,138.92908840304037 91.80845492230425,135.88950395880084 81.18590878790268,123.59212416913847 81.01425584805185,109.1430525027517 75.04041328761014,100 68.81039513193659,84.97987792490493 73.44426521471175,66.70016184175876 94.69740574854177,76.767816623777 107.90949978051613,65.34621722855482 123.3449422776048,70.72636829885833 121.71123965282578,89.54441804035154" fill="white" opacity="0.9"/><circle cx="59.77101765372333" cy="62.27467412215466" r="6.283938036922336" fill="white" opacity="0.7713207468084875"/><circle cx="40.31188780017301" cy="124.82370582745895" r="14.309190791900619" fill="white" opacity="0.8606228835473303"/><circle cx="80.26729719625183" cy="156.3128219364236" r="15.794516970254335" fill="white" opacity="0.6337159276394232"/><circle cx="142.46398151247763" cy="137.38829346802254" r="5.6715789180088905" fill="white" opacity="0.7993879853223916"/><circle cx="33.68259913185119" cy="82.65827495783364" r="14.429710983804398" fill="white" opacity="0.6631071968440665"/><circle cx="137.23740622806932" cy="100.71249088665824" r="10.48616867416058" fill="white" opacity="0.5834273248357931"/><circle cx="92.95616665646824" cy="130.64541954990784" r="9.188671849005914" fill="white" opacity="0.5255136621970451"/><circle cx="84.18382015826668" cy="38.24518849040713" r="10.845879471467015" fill="white" opacity="0.5023719377099042"/><circle cx="145.88690935225998" cy="89.24796155242034" r="16.964366496176808" fill="white" opacity="0.5497954451217083"/><circle cx="93.75061977830684" cy="137.63499035540158" r="8.079525768916938" fill="white" opacity="0.839956615320989"/><circle cx="57.24589322261331" cy="139.89255220249842" r="3.7975031706955633" fill="white" opacity="0.7075815044470801"/><circle cx="152.57141240348471" cy="49.014078055615805" r="5.815454353927635" fill="white" opacity="0.7417747174476972"/><circle cx="98.91220117795864" cy="18.8430328158653" r="5.225986026940518" fill="white" opacity="0.6490093933272875"/><circle cx="105.30047809936008" cy="38.186063958904334" r="5.7394178893300705" fill="white" opacity="0.6745368878328009"/><circle cx="45.1616368818177" cy="120.86476324689761" r="4.684684956097044" fill="white" opacity="0.5170164642651799"/><circle cx="182.23804487118713" cy="110.98461473480828" r="3.4971125643787673" fill="white" opacity="0.40866118236554033"/><circle cx="71.39505191585972" cy="141.04592638958056" r="5.95071409852244" fill="white" opacity="0.5415510852559238"/><circle cx="51.81693099106854" cy="52.35695599383498" r="2.452102276147343" fill="white" opacity="0.7486919740826125"/></svg>