<svg xmlns="http://www.w3.org/2000/svg" width="200" height="200" viewBox="0 0 200 200"><polygon points="133.42383476512623,100 152.14120632637974,116.9417049207846 147.55837029792715,134.55317858407108 118.68620872545729,125.71935985187011 117.04101902068753,152.44686369666036 100,144.62978313109488 87.27783474154421,139.15479857317234 73.2034511245388,136.88228540320696 49.9178213091855,136.3868327140406 63.658163045472605,111.80817862381086 46.557237752422225,100 68.66554528863108,89.81881849355827 57.585105268495326,69.18377515669134 80.716699152799,73.45881334690607 85.03141016426535,53.931417487830664 100,67.53795764612732 113.24243479891828,59.24397642725247 127.65145601664727,61.94103586398281 135.69444249886524,74.06646951113245 142.78982327174765,86.096743620684" fill="white" opacity="0.9"/><circle cx="79.25675189914566" cy="106.82994923283653" r="5.79389112905119" fill="white" opacity="0.6123112235465669"/><circle cx="159.7023490844218" cy="82.19162208302271" r="11.532771856436739" fill="white" opacity="0.6443181551047019"/><circle cx="124.08467483898771" cy="35.02571970303636" r="14.767732100190187" fill="white" opacity="0.8980082108930219"/><circle cx="145.35819697461642" cy="80.32249478586004" r="5.4866337931889575" fill="white" opacity="0.8321391566760212"/><circle cx="67.87201317801618" cy="40.52683870567494" r="11.610102434533474" fill="white" opacity="0.7866214212583145"/><circle cx="54.85705731138538" cy="145.5543095420897" r="7.567443841962813" fill="white" opacity="0.5164148600219051"/><circle cx="152.7601255934111" cy="95.907230606924" r="8.866731974994764" fill="white" opacity="0.8928396169867483"/><circle cx="150.67063125853338" cy="143.5670112919845" r="14.504929785107379" fill="white" opacity="0.751097762043355"/><circle cx="81.69490643145879" cy="72.33312910231464" r="12.869677664220944" fill="white" opacity="0.5725384502253291"/><circle cx="96.21913825665666" cy="77.3054142077736" r="14.6179436591774" fill="white" opacity="0.8373721853509779"/><circle cx="126.65894222896269" cy="96.95809140484266" r="9.62677373257975" fill="white" opacity="0.5540539010311477"/><circle cx="91.15243996513418" cy="124.85203853121199" r="11.993848958591116" fill="white" opacity="0.6107890638973913"/><circle cx="95.95113060807927" cy="151.94216721686922" r="16.081548351285164" fill="white" opacity="0.6992399525217479"/><circle cx="82.6363350021955" cy="129.4339749494845" r="6.405833442277071" fill="white" opacity="0.7964813303678966"/><circle cx="104.556215893242" cy="128.61490960599525" r="12.664361268507491" fill="white" opacity="0.8554859372117789"/><circle cx="34.873907321478754" cy="106.16080660851125" r="12.665437879768433" fill="white" opacity="0.5772005118618836"/><circle cx="158.41073443166277" cy="37.983240672451956" r="4.998854980309261" fill="white" opacity="0.7838882730837213"/><circle cx="31.592763459491167" cy="92.0869171871942" r="5.80662273085909" fill="white" opacity="0.5420872043498094"/><circle cx="79.36038787853995" cy="148.9229021141881" r="4.014173535106238" fill="white" opacity="0.7029907311778516"/><circle cx="16.647728624263905" cy="113.71119638096815" r="5.5137639891472645" fill="white" opacity="0.5873395432223334"/><circle cx="71.00434720223448" cy="28.560966384167642" r="3.650806182908127" fill="white" opacity="0.7458677809980145"/><circle cx="142.76495572325766" cy="172.89008680756086" r="2.319758827012265" fill="white" opacity="0.5165328747854802"/><circle cx="169.24631351272433" cy="104.61713252428623" r="2.9440040499175666" fill="white" opacity="0.5314609668930643"/><circle cx="106.13985117018099" cy="150.30185533826867" r="4.614360085135559" fill="white" opacity="0.44620981294137896"/><circle cx="120.79149328909438" cy="154.48341366722588" r="2.5486678945599124" fill="white" opacity="0.5555925591062988"/><circle cx="141.5383431895747" cy="56.327907802442994" r="3.4964016295198235" fill="white" opacity="0.7963073649432773"/><circle cx="148.11123210841367" cy="158.61381497863425" r="3.2987463460012805" fill="white" opacity="0.7003620789415437"/><circle cx="82.95962176627728" cy="173.0649876575852" r="5.512661477259826" fill="white" opacity="0.5976072123783525"/><circle cx="173.72410705309204" cy="95.81394110203347" r="5.072026205918519" fill="white" opacity="0.5617454077641014"/><circle cx="131.9164854973403" cy="50.76016601487836" r="2.7474315745348576" fill="white" opacity="0.40149532619107053"/></svg>